<svg width="104" height="39" viewBox="0 0 104 39" fill="none" xmlns="http://www.w3.org/2000/svg">
<path d="M75.9244 0.078125C77.3549 0.10237 78.7853 0.078125 80.24 0.078125C80.24 4.49068 80.24 8.87898 80.24 13.2915C78.8095 13.2915 77.3549 13.2915 75.9244 13.2915C75.9244 8.87898 75.9244 4.46643 75.9244 0.078125ZM85.4526 14.9644C89.4045 10.8913 93.3079 6.76969 97.2356 2.69656C98.2539 3.76333 99.2964 4.80586 100.29 5.89687C96.387 10.0185 92.4594 14.0674 88.556 18.189C87.4892 17.1222 86.4709 16.0312 85.4526 14.9644ZM9.8816 12.5399C10.9726 12.2733 12.0879 12.1278 13.2031 12.1763C16.9126 12.0793 20.5008 14.0431 22.8041 17.0252C23.8951 18.4314 24.6952 20.1043 25.1316 21.8499C23.4344 21.8499 21.7373 21.8499 20.0402 21.8499C19.2886 20.2983 18.1491 18.9163 16.6459 18.1162C15.8216 17.6556 14.9245 17.3404 13.979 17.2192C13.1062 17.1949 12.2333 17.1222 11.3605 17.3647C9.93009 17.6798 8.59663 18.4799 7.57835 19.5709C6.24488 20.8559 5.37207 22.6985 5.29934 24.5896C5.12962 26.408 5.46905 28.2991 6.46309 29.8265C7.40863 31.2812 8.76634 32.5177 10.3665 33.1238C13.0334 34.1663 16.2822 33.5359 18.3188 31.4266C18.9976 30.6993 19.6038 29.8507 20.0402 28.9537C21.7373 28.9537 23.4102 28.9537 25.1073 28.9537C24.6952 30.8205 23.7739 32.5419 22.6344 34.0208C21.8343 34.8694 21.0585 35.7907 20.0887 36.4211C15.7246 39.5486 9.39671 39.3789 5.29934 35.8392C4.01436 34.6997 2.85061 33.4147 2.05054 31.863C0.571603 29.1234 0.207931 25.8503 0.717072 22.7955C1.15348 20.2013 2.46269 17.8011 4.25681 15.9827C5.78423 14.3341 7.74806 13.0733 9.8816 12.5399ZM27.7015 12.2005C29.3017 12.2005 30.9261 12.2005 32.5262 12.2005C32.5262 21.0741 32.5262 29.9235 32.5262 38.7971C30.9261 38.7971 29.3017 38.7971 27.7015 38.7971C27.7015 29.8992 27.7015 21.0499 27.7015 12.2005ZM42.2969 17.4859C43.2182 17.2919 44.1395 17.4131 45.085 17.3889C46.1518 17.4859 47.2428 17.6556 48.2611 18.0193C49.2794 18.3829 50.3462 18.8436 51.0493 19.7407C51.8978 20.7832 52.1888 22.1894 52.2615 23.5228C52.2615 28.6142 52.2615 33.7057 52.2615 38.7971C50.6371 38.7971 48.9885 38.8213 47.3641 38.7728C47.3398 38.0697 47.3883 37.3909 47.3641 36.6878C45.9336 37.9485 44.0425 38.5546 42.1999 38.7001C41.0362 38.894 39.8239 38.7243 38.7087 38.3122C37.2782 37.8273 36.0902 36.5665 35.6781 35.0634C35.2174 33.439 35.3144 31.6933 35.8478 30.0932C36.4296 28.493 37.8358 27.3293 39.3633 26.8201C41.3271 26.0928 43.4364 25.9716 45.473 25.5594C46.1761 25.5594 46.8792 25.0987 47.1458 24.4199C47.3398 23.6683 47.1701 22.7228 46.5397 22.2379C45.8366 21.753 44.9881 21.656 44.1637 21.6317C43.4364 21.656 42.6606 21.656 42.0302 22.0681C41.1816 22.553 40.818 23.5471 40.6482 24.4926C39.0238 24.4684 37.3994 24.4926 35.7993 24.4684C35.9932 22.7955 36.3327 21.0256 37.4722 19.7649C38.6602 18.3102 40.5028 17.6314 42.2969 17.4859ZM45.8609 28.9779C44.9153 29.2204 43.9698 29.5113 43 29.6568C42.2242 29.8265 41.4241 30.0689 40.8664 30.6993C40.0906 31.6448 40.0421 33.0995 40.624 34.1421C40.8907 34.627 41.3998 34.8694 41.8605 35.0391C43.3879 35.3543 45.085 34.8452 46.2003 33.7057C47.3398 32.2025 47.1458 30.1902 47.1458 28.3718C46.7094 28.5173 46.3458 28.8809 45.8609 28.9779ZM63.7778 18.092C64.7718 17.8253 65.7658 17.4131 66.8084 17.5101C66.8084 19.2315 66.9053 20.9529 66.8811 22.6743C65.984 22.553 65.0628 22.4318 64.1899 22.7228C62.2988 23.2561 60.7229 25.0018 60.5047 27.0626C60.4805 27.5232 60.3835 27.9596 60.3593 28.4203C60.3593 31.8873 60.3593 35.3301 60.3593 38.7971C58.7591 38.7971 57.1347 38.7971 55.5345 38.7971C55.5103 31.9843 55.5345 25.1715 55.5345 18.3829C57.0862 18.3587 58.6379 18.4314 60.2138 18.4799C60.2138 19.3285 60.1895 20.1528 60.2138 21.0014C61.1351 19.7164 62.3473 18.6011 63.7778 18.092ZM75.8274 17.5586C76.5548 17.4859 77.2821 17.4131 77.9852 17.4859C82.325 17.5344 86.2769 21.0256 87.3195 25.3897C88.2165 28.9537 87.3437 33.051 84.7738 35.621C83.2706 37.2939 81.234 38.4334 79.052 38.7971C78.0095 38.7971 76.9669 38.7971 75.9002 38.7971C72.7726 38.3364 70.0572 36.1059 68.5055 33.2935C66.9053 30.1902 66.9053 26.2625 68.457 23.1592C69.9844 20.274 72.6999 18.0193 75.8274 17.5586ZM76.2153 22.6015C74.7607 22.941 73.5484 24.0077 72.7968 25.317C71.7058 27.2323 71.8755 29.875 73.2332 31.5964C74.6394 33.6814 77.5003 34.4088 79.6824 33.3177C80.9673 32.7116 81.9371 31.5479 82.4705 30.2144C83.0766 28.687 82.9554 26.8929 82.2523 25.4382C81.5007 23.9592 80.0945 22.7955 78.4944 22.5288C77.767 22.5046 76.9669 22.4803 76.2153 22.6015ZM90.6895 23.3774C95.0051 23.3774 99.2964 23.3774 103.612 23.3774C103.612 24.8805 103.612 26.3595 103.612 27.8627C99.2964 27.8627 95.0051 27.8627 90.6895 27.8627C90.6895 26.3595 90.7137 24.8563 90.6895 23.3774Z" fill="#EE3123"/>
</svg>
