<svg width="88" height="24" viewBox="0 0 88 24" fill="none" xmlns="http://www.w3.org/2000/svg">
<path d="M87.4993 20.3859C87.4935 20.4482 87.4819 20.509 87.4805 20.5713C87.4732 21.1839 87.4689 21.7979 87.4616 22.4106C87.4602 22.5119 87.4442 22.6133 87.4442 22.7133C87.4442 22.8291 87.3819 22.8986 87.2847 22.929C87.1571 22.9682 87.0237 23.0102 86.8918 23.0145C86.3132 23.0362 85.7332 23.0536 85.1532 23.0579C84.5297 23.0623 83.9062 23.055 83.2827 23.0435C83.0754 23.0391 82.8695 23.0116 82.6636 22.987C82.6027 22.9797 82.5403 22.958 82.4852 22.9305C82.3504 22.8595 82.2721 22.7683 82.2721 22.5916C82.2764 19.6661 82.275 16.7406 82.2706 13.8151C82.2692 12.6521 82.259 11.4877 82.2503 10.3247C82.2489 10.0974 82.2387 9.87143 82.2315 9.64405C82.23 9.61219 82.2228 9.58177 82.1923 9.54267C82.1633 9.59915 82.1285 9.65419 82.1053 9.71357C81.9806 10.038 81.8661 10.3653 81.7356 10.6883C80.7916 13.0229 79.8462 15.356 78.8979 17.6878C78.7167 18.1338 78.5166 18.5741 78.3324 19.0202C78.2715 19.1693 78.1686 19.2591 78.0163 19.2866C77.8264 19.32 77.635 19.3547 77.4436 19.3634C76.4822 19.4083 75.5209 19.4069 74.5595 19.3634C74.3478 19.3533 74.1376 19.3156 73.9288 19.2794C73.7765 19.2533 73.6707 19.1635 73.6054 19.0187C73.3647 18.4872 73.1081 17.9629 72.8775 17.4256C71.8959 15.133 70.9215 12.8375 69.9471 10.542C69.847 10.3074 69.7644 10.0655 69.6716 9.82653C69.6397 9.74253 69.6005 9.66143 69.5657 9.57888C69.5527 9.58033 69.5411 9.58177 69.528 9.58322C69.5222 9.62088 69.5135 9.65998 69.5121 9.69764C69.5034 9.98729 69.4918 10.2769 69.4889 10.5666C69.4744 12.164 69.4613 13.7615 69.4512 15.3604C69.4396 17.1519 69.4323 18.942 69.4207 20.7335C69.4178 21.265 69.4048 21.7951 69.3932 22.3266C69.3903 22.4613 69.3743 22.5959 69.37 22.7306C69.3671 22.8378 69.3178 22.9044 69.2163 22.9305C69.0945 22.9609 68.9727 22.9942 68.8494 23.0102C68.7059 23.029 68.5609 23.0377 68.4159 23.0406C67.3719 23.0522 66.3279 23.0666 65.2839 23.0666C65.0591 23.0666 64.8329 23.0203 64.6096 22.987C64.4849 22.9682 64.3718 22.9117 64.2776 22.8204C64.2312 22.7755 64.208 22.7306 64.2138 22.6684C64.2152 22.6495 64.2138 22.6293 64.2138 22.6104C64.2167 15.8383 64.2181 9.06474 64.2239 2.29262C64.2239 1.78573 64.2399 1.27883 64.2515 0.771938C64.2529 0.695179 64.2689 0.618421 64.2689 0.541662C64.2689 0.388146 64.353 0.295456 64.4878 0.254904C64.6111 0.217249 64.7401 0.183939 64.8692 0.176698C65.3027 0.150629 65.7377 0.12456 66.1727 0.120215C66.9891 0.111526 67.8069 0.111526 68.6232 0.117319C69.0437 0.120215 69.4628 0.143388 69.8775 0.228836C69.9297 0.238973 69.9819 0.252008 70.0326 0.265042C70.269 0.327318 70.443 0.450421 70.5459 0.687938C70.8533 1.40049 71.1839 2.10435 71.487 2.81979C72.5223 5.26737 73.5503 7.7193 74.5769 10.1698C75.0554 11.3139 75.4846 12.4769 75.8718 13.6543C75.9196 13.8006 75.9834 13.9425 76.04 14.0859C76.0487 14.1076 76.0646 14.1265 76.0806 14.154C76.1415 14.1178 76.1444 14.0555 76.1618 14.0062C76.4315 13.2778 76.6823 12.5435 76.9694 11.8208C77.5915 10.2567 78.2208 8.69543 78.8646 7.13999C79.7244 5.06317 80.6017 2.99359 81.4717 0.921109C81.5195 0.805248 81.5761 0.692283 81.621 0.576421C81.6761 0.435939 81.7776 0.349042 81.9096 0.288215C82.1155 0.192629 82.3344 0.153525 82.5563 0.147732C83.8801 0.108629 85.204 0.111526 86.5278 0.147732C86.6627 0.152077 86.7975 0.172353 86.9309 0.186836C87.1426 0.211456 87.3282 0.301249 87.4964 0.428697C87.4993 7.08061 87.4993 13.734 87.4993 20.3859Z" fill="#0B3D86"/>
<path d="M44.9577 0.0810547C45.0201 0.0868478 45.0824 0.0969857 45.1433 0.0969857C46.7485 0.104227 48.3522 0.108572 49.9573 0.117261C50.1937 0.11871 50.43 0.133192 50.6664 0.144779C50.8389 0.153468 50.8868 0.188227 50.923 0.362019C50.9622 0.54595 50.9912 0.732777 51.0057 0.919604C51.026 1.20347 51.0405 1.48877 51.0376 1.77264C51.0332 2.49677 51.0231 3.22091 51.0042 3.94359C50.997 4.18835 50.9564 4.43311 50.9288 4.67642C50.923 4.72276 50.9056 4.77056 50.8868 4.81401C50.8476 4.91104 50.7824 4.97042 50.6693 4.97476C50.2836 4.9878 49.8979 5.01532 49.5107 5.01966C48.3899 5.03125 47.269 5.03559 46.1467 5.04283C45.9002 5.04428 45.6537 5.04718 45.4072 5.05152C45.3608 5.05152 45.313 5.05587 45.2477 5.06021C45.2477 5.14131 45.2477 5.21228 45.2477 5.28325C45.2463 10.1972 45.2463 15.1112 45.2419 20.0252C45.2419 20.8218 45.2245 21.6183 45.2129 22.4149C45.2115 22.5162 45.197 22.6162 45.1941 22.7175C45.1926 22.8334 45.1259 22.9015 45.0273 22.9275C44.8794 22.9666 44.7272 23.0086 44.5749 23.013C43.7397 23.0391 42.9031 23.055 42.0679 23.0695C41.7242 23.0753 41.382 23.0738 41.0384 23.0637C40.8412 23.0579 40.644 23.0289 40.4482 23.0086C40.4149 23.0057 40.3815 22.9942 40.3496 22.9855C40.1437 22.9261 40.0785 22.8537 40.0654 22.6408C40.0509 22.4004 40.0379 22.1585 40.0379 21.9181C40.0321 19.2924 40.0263 16.6667 40.0248 14.0395C40.0234 11.114 40.0248 8.18848 40.0248 5.26297C40.0248 5.19635 40.0248 5.13118 40.0248 5.04428C39.9393 5.04428 39.8726 5.04428 39.8073 5.04428C38.2457 5.03849 36.6855 5.03414 35.1238 5.0269C34.9643 5.02545 34.8048 5.01821 34.6468 5.00228C34.4699 4.98345 34.409 4.92842 34.3742 4.75463C34.3466 4.6127 34.3249 4.46787 34.3234 4.32449C34.3191 3.08332 34.3205 1.8436 34.3205 0.602432C34.3205 0.544502 34.3307 0.486571 34.3336 0.430088C34.3394 0.312778 34.3858 0.217192 34.4728 0.137537C34.4902 0.121606 34.5018 0.0998822 34.5163 0.0810547C37.9977 0.0810547 41.4777 0.0810547 44.9577 0.0810547Z" fill="#0B3D86"/>
<path d="M20.423 0.0795733C20.4853 0.0853664 20.5462 0.0955043 20.6086 0.0969525C22.3094 0.105642 24.0103 0.111435 25.7111 0.121573C26.136 0.12447 26.5608 0.138952 26.9871 0.141849C27.1176 0.143297 27.2365 0.172263 27.3424 0.246124C27.454 0.322883 27.5613 0.402538 27.6672 0.486538C27.9137 0.682054 28.0268 0.94564 28.0456 1.25412C28.0587 1.47136 28.0732 1.68715 28.0717 1.9044C28.0688 2.60391 28.0587 3.30343 28.05 4.00294C28.05 4.04494 28.0456 4.09129 28.0268 4.12749C27.8455 4.48811 27.5729 4.76184 27.2104 4.93997C27.1626 4.96314 27.0988 4.96459 27.0422 4.96459C25.859 4.96749 24.6744 4.96749 23.4912 4.96894C18.5728 4.97183 13.6544 4.97473 8.736 4.97908C6.4363 4.98052 4.1366 4.98632 1.8369 4.99645C1.6368 4.9979 1.45555 4.96749 1.2859 4.86177C1.22065 4.82121 1.14815 4.78935 1.0858 4.7459C0.7726 4.52432 0.58555 4.23032 0.5667 3.83929C0.55655 3.66115 0.5435 3.48301 0.53045 3.30487C0.5261 3.25274 0.51015 3.20205 0.5 3.14991C0.5 2.70529 0.5 2.26212 0.5 1.8175C0.5203 1.63647 0.5522 1.45543 0.558 1.2744C0.5667 1.02529 0.6479 0.809502 0.8161 0.631365C0.935 0.506813 1.06695 0.3924 1.20325 0.285228C1.3352 0.180952 1.49325 0.141849 1.66435 0.140401C2.05585 0.138952 2.44735 0.12447 2.83885 0.121573C4.57885 0.111435 6.3174 0.104194 8.0574 0.0955043C8.11975 0.0955043 8.18065 0.0839181 8.243 0.078125C12.303 0.0795733 16.363 0.0795733 20.423 0.0795733Z" fill="#FE000D"/>
<path d="M0.5 10.8271C0.51885 10.6794 0.5377 10.5331 0.558 10.3854C0.5754 10.2667 0.59135 10.1465 0.61455 10.0291C0.6421 9.88867 0.71315 9.76846 0.80595 9.65984C0.8219 9.64101 0.84075 9.62508 0.8538 9.6048C1.05825 9.30067 1.3642 9.21232 1.70785 9.20653C2.84755 9.18915 3.98725 9.16163 5.12695 9.15584C7.19465 9.14425 9.26235 9.1457 11.3301 9.14136C11.4011 9.14136 11.4736 9.14136 11.5548 9.14136C11.5548 10.7794 11.5548 12.4029 11.5548 14.0394C11.4997 14.0394 11.4518 14.0394 11.4054 14.0394C8.7099 14.0365 6.01435 14.0365 3.31735 14.0307C2.83015 14.0293 2.3415 14.0162 1.8543 14.0047C1.73395 14.0018 1.6136 13.9902 1.49325 13.98C1.45555 13.9771 1.4164 13.9685 1.3816 13.954C0.90745 13.7613 0.62905 13.4152 0.56235 12.9054C0.5406 12.7345 0.5203 12.5622 0.5 12.3913C0.5 11.8699 0.5 11.3485 0.5 10.8271Z" fill="#FE000D"/>
<path d="M0.5 20.8492C0.5087 20.7884 0.52175 20.7261 0.52465 20.6653C0.5377 20.1787 0.54785 19.6906 0.55655 19.204C0.558 19.1243 0.5783 19.0563 0.61745 18.9867C0.7842 18.6811 1.0191 18.448 1.3236 18.28C1.399 18.238 1.47005 18.2177 1.55415 18.2177C2.65615 18.2177 3.75815 18.2163 4.8587 18.2134C6.99455 18.2061 9.1304 18.1989 11.2662 18.1902C11.3576 18.1902 11.4489 18.1902 11.5388 18.1902C11.5722 18.3032 11.578 22.9202 11.5432 23.0824C11.4997 23.0824 11.4533 23.0824 11.4054 23.0824C8.58375 23.0824 5.76205 23.0839 2.94035 23.081C2.51985 23.081 2.09935 23.0564 1.6803 23.0477C1.43235 23.0419 1.22065 22.955 1.0365 22.7913C0.8132 22.5915 0.62615 22.3656 0.5725 22.06C0.55075 21.9325 0.5464 21.8007 0.53045 21.6718C0.52465 21.6197 0.51015 21.569 0.5 21.5169C0.5 21.2938 0.5 21.0708 0.5 20.8492Z" fill="#FE000D"/>
<path d="M54.5957 11.6078C54.6044 8.16666 54.6146 4.72412 54.6247 1.28303C54.6262 1.04696 54.6392 0.810891 54.6508 0.573374C54.661 0.360478 54.7088 0.285168 54.9176 0.235927C55.1133 0.188134 55.3163 0.156272 55.5179 0.14903C56.6344 0.109927 57.7509 0.112824 58.8659 0.147582C59.0298 0.153375 59.1922 0.179444 59.3546 0.204065C59.43 0.215651 59.5039 0.243168 59.575 0.273582C59.8316 0.386547 59.8302 0.387995 59.8302 0.670408C59.8273 7.37591 59.8244 14.08 59.82 20.7855C59.82 21.3358 59.8041 21.8861 59.7939 22.4365C59.7925 22.5234 59.7736 22.6103 59.7765 22.6957C59.7794 22.8232 59.7127 22.8999 59.6011 22.9303C59.4575 22.968 59.3096 23.0086 59.1632 23.0129C58.2787 23.039 57.3956 23.0563 56.5111 23.0723C56.2646 23.0766 56.0181 23.0665 55.7716 23.0723C55.5135 23.0781 55.2612 23.0332 55.0104 22.9897C54.9814 22.9854 54.9539 22.9781 54.9263 22.9709C54.703 22.9043 54.6595 22.8565 54.6523 22.6262C54.6378 22.1483 54.6204 21.6703 54.6189 21.1939C54.616 17.9975 54.6175 14.8026 54.6175 11.6063C54.6088 11.6078 54.603 11.6078 54.5957 11.6078Z" fill="#0B3D86"/>
<path d="M17.0488 23.081C17.0488 21.4415 17.0488 19.8238 17.0488 18.1887C17.1126 18.1887 17.1692 18.1887 17.2257 18.1887C20.5056 18.1989 23.787 18.2075 27.0669 18.2162C27.1481 18.2162 27.2133 18.2423 27.2829 18.28C27.599 18.4509 27.8368 18.6971 28.0007 19.0128C28.0268 19.062 28.0456 19.12 28.0471 19.175C28.0572 19.9324 28.0674 20.6899 28.0674 21.4473C28.0674 21.6631 28.0413 21.8804 28.0166 22.0962C27.9949 22.2888 27.9079 22.4553 27.773 22.5944C27.4265 22.9506 27.4294 22.9912 26.832 23.0419C26.4709 23.0723 26.1084 23.0795 25.7459 23.0795C22.9141 23.0824 20.0837 23.081 17.2518 23.081C17.1895 23.081 17.1271 23.081 17.0488 23.081Z" fill="#FE000D"/>
<path d="M17.0488 14.0409C17.0488 12.3985 17.0488 10.7794 17.0488 9.14282C17.1097 9.14282 17.1619 9.14282 17.2141 9.14282C19.7951 9.15006 22.3761 9.15586 24.9571 9.1631C25.4313 9.16455 25.904 9.17034 26.3781 9.18337C26.6435 9.19062 26.9088 9.21524 27.1727 9.23696C27.3525 9.25144 27.4903 9.34123 27.6295 9.45999C27.9456 9.72937 28.0442 10.0726 28.0427 10.4665C28.0413 11.085 28.0471 11.7019 28.0485 12.3203C28.05 12.5622 28.0471 12.8026 28.05 13.0445C28.0514 13.1154 28.0297 13.1734 27.9963 13.2342C27.831 13.5398 27.599 13.7773 27.2945 13.9467C27.2162 13.9902 27.1408 14.0148 27.0495 14.0148C25.9721 14.0163 24.8933 14.0192 23.816 14.022C21.6598 14.0278 19.5051 14.0351 17.349 14.0423C17.2533 14.0409 17.1576 14.0409 17.0488 14.0409Z" fill="#FE000D"/>
</svg>
